<svg xmlns="http://www.w3.org/2000/svg" xmlns:xlink="http://www.w3.org/1999/xlink" version="1.1" width="144.2992pt" height="144.2992pt" viewBox="0 0 144.2992 144.2992">
<g id="layer_1" data-name="Layer 1">
<path transform="matrix(1,0,0,-1,1,143.2992)" d="M25.134203 25.220404C25.134203 25.220404 13.0504 34.026 27.1772 43.476408 41.303899 52.926809 82.4139 61.793 129.3072 47.0509 129.3072 47.0509 113.15881 62.179899 61.838899 58.7327 10.518802 55.28581 2.0931 34.3494 25.134203 25.220404ZM43.976408 114.0809V110.81792C46.5829 110.3258 48.570199 108.02409 48.570199 105.2802V104.3314H49.302099C49.740407 104.3314 50.0984 103.9734 50.0984 103.535099V97.0671C50.0984 96.6288 49.740407 96.2705 49.302099 96.2705H48.570199V71.923198H49.812696C50.28581 71.923198 50.672998 71.535999 50.672998 71.0629V64.076297C50.672998 63.60319 50.28581 63.216 49.812696 63.216H48.570199V58.0927C44.799 57.5402 40.990407 56.824407 37.2991 55.8964V63.216H36.056707C35.5836 63.216 35.1964 63.60319 35.1964 64.076297V71.0629C35.1964 71.535999 35.5836 71.923198 36.056707 71.923198H37.2991V96.2705H36.5672C36.128999 96.2705 35.770708 96.6288 35.770708 97.0671V103.535099C35.770708 103.9734 36.128999 104.3314 36.5672 104.3314H37.2991V105.2802C37.2991 108.02409 39.286508 110.3258 41.8929 110.81792V113.773288C39.691598 113.9315 37.899499 115.565097 37.5001 117.69049 38.16 116.1329 39.7029 115.0407 41.5009 115.0407 43.8999 115.0407 45.844709 116.98551 45.844709 119.3842 45.844709 121.0774 44.8764 122.544 43.463308 123.2606 45.5394 122.7206 47.0718 120.8333 47.0718 118.58852 47.0718 116.5326 45.786909 114.7774 43.976408 114.0809ZM41.9729 122.4814 42.6203 120.4756 44.7276 120.47981 43.0206 119.244197 43.6754 117.2415 41.9729 118.4834 40.269807 117.2415 40.9252 119.244197 39.217599 120.47981 41.3254 120.4756ZM38.377099 101.78961H38.3777C39.0685 101.78961 39.632295 101.22549 39.632295 100.5347V96.7975H37.1228V100.5347C37.1228 101.22549 37.6869 101.78961 38.377099 101.78961ZM42.934408 101.78961H42.934709C43.6249 101.78961 44.189599 101.22549 44.189599 100.5347V96.7975H41.6798V100.5347C41.6798 101.22549 42.244207 101.78961 42.934408 101.78961ZM47.491708 101.78961H47.4919C48.182199 101.78961 48.7466 101.22549 48.7466 100.5347V96.7975H46.2368V100.5347C46.2368 101.22549 46.801099 101.78961 47.491708 101.78961ZM41.151098 71.923198H44.718V77.23528C44.718 78.216388 43.916 79.0183 42.934709 79.0183H42.934408C41.9533 79.0183 41.151098 78.216388 41.151098 77.23528ZM38.011999 69.17751H38.012598C38.7584 69.17751 39.367807 68.5681 39.367807 67.822299V63.785207H36.657098V67.822299C36.657098 68.5681 37.266508 69.17751 38.011999 69.17751ZM42.934408 69.17751H42.934709C43.6805 69.17751 44.289907 68.5681 44.289907 67.822299V63.785207H41.5794V67.822299C41.5794 68.5681 42.1889 69.17751 42.934408 69.17751ZM47.8565 69.17751H47.857C48.6028 69.17751 49.212297 68.5681 49.212297 67.822299V63.785207H46.5015V67.822299C46.5015 68.5681 47.110998 69.17751 47.8565 69.17751ZM98.4158 96.2515V92.30911C100.1701 91.97801 101.5081 90.42861 101.5081 88.58151V87.9429H102.0008C102.295589 87.9429 102.5368 87.7017 102.5368 87.4066V83.0529C102.5368 82.75781 102.295589 82.5168 102.0008 82.5168H101.5081V66.1275H102.3443C102.6626 66.1275 102.923389 65.86701 102.923389 65.548618V60.845708C102.923389 60.5271 102.6626 60.266607 102.3443 60.266607H101.5081V58.1445C99.0068 58.5601 96.4723 58.895708 93.9209 59.1616V60.266607H93.0847C92.76627 60.266607 92.5055 60.5271 92.5055 60.845708V65.548618C92.5055 65.86701 92.76627 66.1275 93.0847 66.1275H93.9209V82.5168H93.4282C93.133388 82.5168 92.8922 82.75781 92.8922 83.0529V87.4066C92.8922 87.7017 93.133388 87.9429 93.4282 87.9429H93.9209V88.58151C93.9209 90.42861 95.25881 91.97801 97.0132 92.30911V96.0446C95.5312 96.15151 94.325099 97.2507 94.0561 98.6814 94.5006 97.633098 95.5389 96.897518 96.7496 96.897518 98.3642 96.897518 99.6735 98.206897 99.6735 99.8218 99.6735 100.961 99.0218 101.9483 98.0705 102.4308 99.46771 102.0674 100.4992 100.79688 100.4992 99.2857 100.4992 97.9019 99.6347 96.72038 98.4158 96.2515ZM97.0671 101.906398 97.503 100.5562 98.9215 100.55911 97.772289 99.727397 98.2131 98.378917 97.0671 99.215099 95.921 98.378917 96.3618 99.727397 95.212299 100.55911 96.631389 100.5562ZM94.6468 86.231899H94.6471C95.112 86.231899 95.4916 85.85211 95.4916 85.387218V82.8714H93.8024V85.387218C93.8024 85.85211 94.1822 86.231899 94.6468 86.231899ZM97.714199 86.231899H97.7148C98.1794 86.231899 98.55921 85.85211 98.55921 85.387218V82.8714H96.86981V85.387218C96.86981 85.85211 97.2496 86.231899 97.714199 86.231899ZM100.7819 86.231899H100.7821C101.2467 86.231899 101.626598 85.85211 101.626598 85.387218V82.8714H99.9374V85.387218C99.9374 85.85211 100.317317 86.231899 100.7819 86.231899ZM96.514 66.1275H98.915V69.703388C98.915 70.3638 98.375 70.9038 97.7148 70.9038H97.714199C97.054 70.9038 96.514 70.3638 96.514 69.703388ZM94.4011 64.2793H94.4014C94.9034 64.2793 95.313518 63.8691 95.313518 63.3671V60.649499H93.488918V63.3671C93.488918 63.8691 93.8991 64.2793 94.4011 64.2793ZM97.714199 64.2793H97.7148C98.21649 64.2793 98.62699 63.8691 98.62699 63.3671V60.649499H96.802V63.3671C96.802 63.8691 97.2125 64.2793 97.714199 64.2793ZM101.0276 64.2793H101.0279C101.5299 64.2793 101.9401 63.8691 101.9401 63.3671V60.649499H100.115398V63.3671C100.115398 63.8691 100.5256 64.2793 101.0276 64.2793ZM69.2816 106.609 70.6513 102.3661 75.10961 102.3746 71.49771 99.761089 72.88361 95.5236 69.2816 98.1513 65.67961 95.5236 67.065387 99.761089 63.4538 102.3746 67.9122 102.3661ZM72.4348 108.2574C76.826297 107.1145 80.0683 103.122699 80.0683 98.3733 80.0683 92.7326 75.4957 88.16029 69.855 88.16029 64.8635 88.16029 60.7096 91.7408 59.81919 96.4735 61.2159 93.1793 64.4794 90.868518 68.283199 90.868518 73.35841 90.868518 77.4723 94.98251 77.4723 100.05762 77.4723 103.6386 75.423999 106.7409 72.4348 108.2574ZM54.6809 61.3508H86.93721V60.2666H54.6809ZM70.80921 88.16029C70.80921 88.16029 66.34091 79.16 59.3833 74.94721 52.425909 70.73428 54.0218 66.649 56.0642 63.4575H70.80921 85.5539C87.59618 66.649 89.19238 70.73428 82.234798 74.94721 82.234798 74.94721 75.2771 79.16 70.80921 88.16029" fill-rule="evenodd"/>
<path transform="matrix(1,0,0,-1,1,143.2992)" d="M41.7671 35.4696V48.0728H39.116697V35.4696Z"/>
<path transform="matrix(1,0,0,-1,1,143.2992)" d="M47.982908 35.4696V44.2919L50.8927 35.4696H53.691297L56.5826 44.2363V35.4696H59.214307V48.0728H55.211L52.301198 39.046709 49.3727 48.0728H45.3509V35.4696Z"/>
<path transform="matrix(1,0,0,-1,1,143.2992)" d="M65.24449 37.9162H70.452617L71.3237 35.4696H73.9369L69.488819 48.0728H66.2083L61.7788 35.4696H64.3921ZM67.85772 45.4595 69.711299 40.1403H66.004398Z"/>
<path transform="matrix(1,0,0,-1,1,143.2992)" d="M78.9293 37.9162H84.1374L85.008518 35.4696H87.6217L83.1736 48.0728H79.8931L75.4637 35.4696H78.0769ZM81.5426 45.4595 83.396099 40.1403H79.6893Z"/>
<path transform="matrix(1,0,0,-1,1,143.2992)" d="M92.818218 35.4696V44.1805L97.3774 35.4696H101.0843V48.0728H98.4339V39.102197L93.744899 48.0728H90.186199V35.4696Z"/>
<path transform="matrix(1,0,0,-1,1,143.2992)" d="M38.2238 19.2243V28.046605L41.13349 19.2243H43.932199L46.823499 27.991V19.2243H49.4552V31.8274H45.4518L42.5421 22.801297 39.61359 31.8274H35.5918V19.2243Z"/>
<path transform="matrix(1,0,0,-1,1,143.2992)" d="M55.48541 21.6709H60.693399L61.564508 19.2243H64.1778L59.729707 31.8274H56.4491L52.019697 19.2243H54.632997ZM58.0986 29.2141 59.952199 23.894898H56.245309Z"/>
<path transform="matrix(1,0,0,-1,1,143.2992)" d="M70.764087 19.0389C72.636089 19.0389 74.026187 19.502404 74.7119 20.243607 75.39761 20.9849 75.6757 21.763604 75.6757 22.6715 75.694377 25.136504 73.26618 26.137404 71.394199 26.712004 70.1155 27.1568 69.05911 27.6574 69.05911 28.3246 69.05911 29.047503 69.9857 29.6218 71.46851 29.6218 72.617717 29.6218 73.822399 29.288403 75.0827 28.639607V31.049004C74.192897 31.697604 72.9142 32.0128 71.2276 32.0128 68.05811 32.0128 66.2788 30.641404 66.2788 28.361496 66.2788 26.749104 67.3353 25.618403 68.614299 25.0254 69.26289 24.747303 69.91171 24.4879 70.560298 24.2654 71.8393 23.8207 72.8957 23.3016 72.8957 22.5791 72.8957 21.8375 71.98752 21.4483 70.671398 21.4483 69.244388 21.4483 67.8359 21.8004 66.4458 22.486403V19.836C67.743198 19.298604 69.18891 19.0389 70.764087 19.0389"/>
<path transform="matrix(1,0,0,-1,1,143.2992)" d="M79.8154 19.0389C82.799388 19.0576 84.282199 20.447403 84.282199 23.246104V31.8274H81.6503V23.338799C81.6503 22.0972 81.20549 21.4483 79.852519 21.4483 79.018619 21.4483 78.425289 21.485497 78.1104 21.578198V19.2243C78.722087 19.0945 79.29637 19.0389 79.8154 19.0389"/>
<path transform="matrix(1,0,0,-1,1,143.2992)" d="M90.5349 19.2243V31.8274H87.884517V19.2243Z"/>
<path transform="matrix(1,0,0,-1,1,143.2992)" d="M98.9748 19.2243C100.809619 19.2243 102.29218 19.798903 103.4229 20.9665 104.5534 22.134003 105.10951 23.672404 105.10951 25.544404 105.10951 27.4348 104.5534 28.954796 103.4229 30.103703 102.31091 31.2528 100.8281 31.8274 98.9748 31.8274H94.11871V19.2243ZM98.9748 29.436703C99.957019 29.436703 100.7541 29.0843 101.3655 28.380198 101.9772 27.694203 102.29218 26.749104 102.29218 25.544404 102.29218 24.339703 101.9772 23.394299 101.3655 22.6715 100.7541 21.9674 99.957019 21.6153 98.9748 21.6153H96.7507V29.436703Z"/>
</g>
</svg>
